<?xml version="1.0" encoding="UTF-8" ?>
<!DOCTYPE svg PUBLIC "-//W3C//DTD SVG 1.1//EN" "http://www.w3.org/Graphics/SVG/1.1/DTD/svg11.dtd">
<svg width="512pt" height="512pt" viewBox="0 0 512 512" version="1.1" xmlns="http://www.w3.org/2000/svg">
<g id="#ffffffff">
</g>
<g id="#000000ff">
<path fill="#000000" opacity="1.00" d=" M 51.56 56.54 C 52.99 56.04 54.45 55.53 55.99 55.61 C 90.33 55.77 124.66 55.62 158.99 55.69 C 163.74 55.77 168.49 55.40 173.22 55.86 C 173.63 72.42 173.18 89.00 173.45 105.57 C 180.77 105.70 188.10 105.82 195.42 105.51 C 195.59 88.95 195.10 72.37 195.62 55.82 C 235.87 55.55 276.15 55.66 316.40 55.76 C 317.14 72.32 316.42 88.95 316.73 105.53 C 324.02 105.80 331.33 105.68 338.63 105.60 C 338.88 89.71 338.63 73.81 338.76 57.92 C 338.23 55.84 340.54 55.44 341.99 55.62 C 376.65 55.76 411.32 55.61 445.99 55.70 C 450.84 55.74 455.80 55.11 460.56 56.40 C 460.39 96.62 460.66 136.85 460.42 177.08 C 422.62 177.48 384.81 177.08 347.01 177.27 C 344.28 177.29 341.56 177.21 338.84 177.09 C 338.56 160.60 338.86 144.09 338.69 127.60 C 331.37 127.38 324.04 127.34 316.73 127.62 C 316.58 144.08 316.83 160.54 316.64 176.99 C 300.19 177.56 283.70 177.08 267.24 177.20 C 266.68 183.26 266.82 189.37 267.18 195.44 C 283.65 195.61 300.12 195.28 316.58 195.58 C 316.82 229.06 316.61 262.55 316.68 296.04 C 316.58 302.88 316.92 309.74 316.54 316.58 C 300.09 316.77 283.63 316.51 267.18 316.67 C 266.93 322.74 266.88 328.85 267.24 334.92 C 283.70 335.02 300.19 334.58 316.63 335.12 C 316.75 367.42 316.64 399.73 316.68 432.03 C 316.54 440.15 316.97 448.29 316.49 456.40 C 276.20 456.45 235.90 456.48 195.61 456.38 C 195.18 425.61 195.55 394.81 195.43 364.03 C 195.58 354.33 195.12 344.63 195.62 334.95 C 212.10 334.71 228.59 335.11 245.08 334.77 C 245.23 328.75 245.21 322.73 245.09 316.70 C 228.57 316.46 212.06 316.80 195.55 316.57 C 195.26 283.71 195.51 250.84 195.43 217.98 C 195.54 210.50 195.18 203.03 195.57 195.57 C 212.07 195.26 228.58 195.67 245.09 195.40 C 244.94 189.41 245.75 183.16 244.70 177.33 C 228.35 177.01 211.99 177.41 195.64 177.18 C 195.07 160.68 195.62 144.14 195.40 127.62 C 188.08 127.34 180.75 127.38 173.43 127.59 C 173.23 144.10 173.57 160.62 173.27 177.12 C 134.52 177.42 95.77 177.10 57.02 177.28 C 55.16 177.35 53.32 177.07 51.52 176.62 C 51.57 136.59 51.50 96.56 51.56 56.54 Z" />
</g>
<g id="#94a3b8ff">
<path fill="#94a3b8" opacity="1.00" d=" M 51.58 199.98 C 51.72 198.23 50.91 194.89 53.84 195.62 C 93.59 195.36 133.35 195.51 173.10 195.59 C 173.17 235.87 173.33 276.16 173.04 316.44 C 143.71 316.62 114.37 316.46 85.04 316.51 C 73.91 316.44 62.77 316.73 51.65 316.34 C 51.46 277.55 51.64 238.76 51.58 199.98 Z" />
<path fill="#94a3b8" opacity="1.00" d=" M 339.11 195.61 C 373.73 195.31 408.35 195.66 442.97 195.47 C 448.80 195.48 454.63 195.47 460.45 195.66 C 460.53 235.90 460.48 276.13 460.47 316.36 C 420.02 316.68 379.57 316.48 339.13 316.46 C 339.03 283.98 339.07 251.50 339.06 219.03 C 338.68 211.22 339.18 203.42 339.11 195.61 Z" />
<path fill="#94a3b8" opacity="1.00" d=" M 51.63 335.42 C 79.07 334.78 106.55 335.33 134.00 335.15 C 147.04 335.21 160.07 335.04 173.10 335.22 C 173.28 364.47 173.14 393.71 173.18 422.95 C 172.99 434.15 173.63 445.37 172.81 456.55 C 132.45 456.37 92.08 456.70 51.72 456.40 C 51.40 416.07 51.62 375.75 51.63 335.42 Z" />
<path fill="#94a3b8" opacity="1.00" d=" M 339.14 335.19 C 370.09 335.07 401.03 335.23 431.98 335.14 C 441.48 335.21 450.98 334.97 460.48 335.34 C 460.44 375.71 460.60 416.08 460.38 456.44 C 419.97 456.52 379.55 456.61 339.13 456.41 C 338.82 425.93 339.24 395.46 339.04 364.97 C 338.73 355.05 339.23 345.12 339.14 335.19 Z" />
</g>
</svg>
