<?xml version="1.0" encoding="UTF-8" ?>
<!DOCTYPE svg PUBLIC "-//W3C//DTD SVG 1.1//EN" "http://www.w3.org/Graphics/SVG/1.1/DTD/svg11.dtd">
<svg width="1000pt" height="1000pt" viewBox="0 0 1000 1000" version="1.1" xmlns="http://www.w3.org/2000/svg">
<g id="#000000ff">
<path fill="#000000" opacity="1.00" d=" M 114.41 93.46 C 120.32 91.20 126.64 89.89 132.99 89.99 C 183.00 90.04 233.02 89.96 283.04 90.03 C 307.09 90.63 328.86 110.87 330.82 134.91 C 330.83 150.44 330.82 165.97 330.82 181.50 C 345.81 181.54 360.81 181.49 375.80 181.52 C 375.80 151.03 375.83 120.54 375.78 90.05 C 458.59 90.05 541.41 90.05 624.22 90.05 C 624.16 120.54 624.20 151.03 624.20 181.52 C 639.25 181.49 654.31 181.53 669.37 181.50 C 669.36 168.33 669.38 155.15 669.35 141.97 C 668.89 128.32 674.33 114.57 684.01 104.94 C 693.14 95.66 705.99 90.09 719.02 90.00 C 769.02 90.01 819.02 90.00 869.02 90.01 C 882.25 90.22 895.19 96.09 904.27 105.68 C 911.89 113.58 916.72 124.09 917.96 134.97 C 917.94 188.01 918.00 241.05 917.93 294.10 C 916.23 307.22 909.31 319.66 898.78 327.75 C 889.84 334.89 878.39 338.61 866.98 338.51 C 817.37 338.47 767.75 338.55 718.14 338.47 C 696.49 338.05 676.38 322.04 671.08 301.06 C 668.68 293.25 669.48 285.04 669.36 277.00 C 669.36 267.03 669.37 257.05 669.36 247.08 C 654.30 247.06 639.24 247.07 624.18 247.07 C 624.23 277.54 624.13 308.01 624.24 338.48 C 593.75 338.63 563.26 338.50 532.77 338.54 C 532.77 350.97 532.76 363.39 532.77 375.82 C 563.25 375.79 593.72 375.82 624.20 375.80 C 624.19 458.60 624.19 541.40 624.20 624.20 C 593.72 624.18 563.24 624.21 532.77 624.18 C 532.76 636.61 532.76 649.03 532.77 661.46 C 563.25 661.47 593.74 661.42 624.22 661.48 C 624.17 744.30 624.18 827.13 624.22 909.95 C 541.41 909.95 458.59 909.95 375.78 909.95 C 375.81 827.14 375.85 744.33 375.76 661.52 C 406.25 661.37 436.74 661.49 467.23 661.46 C 467.24 649.03 467.24 636.61 467.23 624.18 C 436.75 624.21 406.28 624.18 375.80 624.20 C 375.81 541.40 375.81 458.60 375.80 375.80 C 406.28 375.82 436.75 375.79 467.23 375.82 C 467.24 363.39 467.23 350.97 467.24 338.54 C 436.75 338.55 406.27 338.54 375.79 338.54 C 375.84 308.05 375.78 277.56 375.82 247.07 C 360.82 247.07 345.82 247.06 330.82 247.08 C 330.80 262.75 330.87 278.42 330.79 294.09 C 329.29 308.47 320.89 321.84 308.91 329.87 C 300.74 335.44 290.90 338.42 281.03 338.50 C 231.36 338.50 181.68 338.51 132.01 338.49 C 109.43 338.47 88.35 321.38 83.67 299.30 C 82.55 294.93 82.07 290.42 82.26 285.92 C 82.29 236.93 82.27 187.95 82.27 138.97 C 82.81 119.20 95.92 100.53 114.41 93.46 Z" />
</g>
<g id="#94a3b8ff">
<path fill="#94a3b8" opacity="1.00" d=" M 82.63 376.27 C 165.18 376.27 247.74 376.22 330.29 376.30 C 330.21 458.77 330.25 541.24 330.27 623.71 C 247.73 623.73 165.18 623.71 82.64 623.72 C 82.67 541.24 82.69 458.75 82.63 376.27 Z" />
<path fill="#94a3b8" opacity="1.00" d=" M 669.73 376.26 C 752.28 376.27 834.83 376.25 917.37 376.27 C 917.32 458.75 917.32 541.23 917.37 623.71 C 834.82 623.73 752.28 623.71 669.73 623.72 C 669.76 541.23 669.76 458.75 669.73 376.26 Z" />
<path fill="#94a3b8" opacity="1.00" d=" M 129.40 661.53 C 175.59 661.27 221.80 661.49 268.00 661.42 C 276.68 661.54 285.54 660.72 293.99 663.18 C 313.36 668.25 328.81 685.90 330.80 705.88 C 330.84 758.93 330.81 811.98 330.82 865.03 C 329.02 885.85 312.46 904.18 292.11 908.62 C 285.22 910.42 278.06 909.87 271.02 909.94 C 224.66 909.94 178.30 909.95 131.94 909.94 C 116.52 909.76 101.50 901.93 92.34 889.54 C 86.35 881.61 83.02 871.83 82.30 861.96 C 82.25 811.29 82.28 760.61 82.29 709.94 C 82.94 697.86 87.79 685.93 96.24 677.21 C 104.82 668.07 116.88 662.35 129.40 661.53 Z" />
<path fill="#94a3b8" opacity="1.00" d=" M 716.42 661.53 C 766.60 661.26 816.79 661.50 866.97 661.41 C 878.64 661.27 890.37 665.19 899.40 672.64 C 909.61 680.75 916.28 693.00 917.94 705.89 C 917.99 758.95 917.94 812.01 917.96 865.06 C 915.83 885.55 899.94 903.75 879.85 908.44 C 872.41 910.50 864.65 909.85 857.04 909.94 C 811.36 909.95 765.68 909.93 720.00 909.95 C 708.31 910.01 696.66 905.81 687.69 898.33 C 675.82 888.65 668.82 873.31 669.36 858.00 C 669.38 814.33 669.36 770.67 669.37 727.01 C 669.65 717.29 668.32 707.32 671.34 697.89 C 676.85 677.93 695.74 662.66 716.42 661.53 Z" />
</g>
</svg>
