<?xml version="1.0" encoding="UTF-8" ?>
<!DOCTYPE svg PUBLIC "-//W3C//DTD SVG 1.1//EN" "http://www.w3.org/Graphics/SVG/1.1/DTD/svg11.dtd">
<svg width="1000pt" height="1000pt" viewBox="0 0 1000 1000" version="1.1" xmlns="http://www.w3.org/2000/svg">
<g id="#000000ff">
<path fill="#000000" opacity="1.00" d=" M 128.92 135.92 C 134.59 135.28 140.31 135.65 146.00 135.62 C 205.33 135.62 264.67 135.62 324.00 135.62 C 332.36 135.82 340.74 135.15 349.08 135.91 C 349.80 142.92 349.25 149.97 349.38 157.00 C 349.50 179.92 349.18 202.85 349.50 225.75 C 355.97 226.59 362.50 226.05 369.00 226.14 C 375.83 226.02 382.70 226.62 389.50 225.75 C 389.81 197.18 389.51 168.57 389.61 139.98 C 389.67 138.62 389.78 137.27 389.92 135.92 C 395.59 135.28 401.30 135.65 407.00 135.62 C 469.00 135.62 531.00 135.62 593.00 135.62 C 598.69 135.65 604.41 135.28 610.08 135.92 C 610.80 142.92 610.25 149.97 610.38 157.00 C 610.50 179.92 610.18 202.85 610.50 225.75 C 616.97 226.59 623.50 226.05 630.00 226.14 C 636.83 226.02 643.70 226.62 650.50 225.75 C 650.82 203.51 650.50 181.25 650.62 159.00 C 650.79 151.31 650.17 143.59 650.92 135.92 C 656.59 135.28 662.30 135.65 668.00 135.62 C 724.00 135.62 780.00 135.62 836.00 135.62 C 847.69 135.86 859.41 135.14 871.09 135.92 C 871.71 141.59 871.34 147.30 871.38 153.00 C 871.38 208.33 871.38 263.66 871.38 319.00 C 871.14 331.36 871.85 343.74 871.09 356.08 C 865.41 356.71 859.69 356.35 854.00 356.38 C 798.00 356.38 742.00 356.38 686.00 356.38 C 674.31 356.14 662.59 356.86 650.92 356.09 C 650.19 349.08 650.75 342.03 650.62 335.00 C 650.50 312.08 650.82 289.15 650.50 266.24 C 644.03 265.41 637.50 265.95 631.00 265.86 C 624.17 265.98 617.30 265.38 610.50 266.25 C 610.18 289.15 610.50 312.08 610.38 335.00 C 610.25 342.03 610.80 349.07 610.08 356.08 C 603.08 356.80 596.03 356.25 589.00 356.38 C 566.08 356.50 543.15 356.18 520.25 356.50 C 519.49 361.97 519.89 367.50 519.84 373.00 C 519.89 378.50 519.49 384.03 520.25 389.50 C 542.49 389.82 564.75 389.50 587.00 389.62 C 594.69 389.79 602.41 389.17 610.08 389.92 C 610.71 395.59 610.34 401.30 610.38 407.00 C 610.38 464.33 610.38 521.67 610.38 579.00 C 610.15 589.36 610.86 599.74 610.08 610.08 C 603.08 610.80 596.03 610.25 589.00 610.38 C 566.08 610.50 543.15 610.17 520.25 610.50 C 519.49 615.97 519.89 621.50 519.84 627.00 C 519.89 632.50 519.49 638.03 520.25 643.50 C 542.49 643.82 564.75 643.50 587.00 643.62 C 594.69 643.79 602.41 643.17 610.08 643.92 C 610.68 649.26 610.37 654.64 610.39 660.00 C 610.37 721.67 610.39 783.33 610.38 845.00 C 610.29 851.36 610.76 857.74 610.08 864.08 C 604.41 864.71 598.69 864.34 593.00 864.38 C 531.00 864.38 469.00 864.38 407.00 864.38 C 401.30 864.34 395.59 864.71 389.92 864.08 C 389.28 858.41 389.65 852.69 389.62 847.00 C 389.62 791.00 389.62 735.00 389.62 679.00 C 389.86 667.31 389.14 655.59 389.92 643.92 C 396.92 643.19 403.97 643.75 411.00 643.62 C 433.92 643.50 456.85 643.82 479.75 643.50 C 480.51 638.03 480.11 632.50 480.16 627.00 C 480.11 621.50 480.51 615.97 479.75 610.50 C 458.51 610.17 437.25 610.50 416.00 610.38 C 407.31 610.17 398.59 610.86 389.92 610.08 C 389.28 604.41 389.65 598.69 389.62 593.00 C 389.62 537.00 389.62 481.00 389.62 425.00 C 389.86 413.31 389.14 401.59 389.92 389.92 C 396.92 389.19 403.97 389.75 411.00 389.62 C 433.91 389.50 456.84 389.82 479.75 389.50 C 480.51 384.03 480.11 378.50 480.16 373.00 C 480.11 367.50 480.51 361.97 479.75 356.50 C 457.51 356.17 435.25 356.50 413.00 356.38 C 405.31 356.21 397.59 356.83 389.92 356.08 C 389.19 349.07 389.75 342.02 389.62 335.00 C 389.50 312.08 389.82 289.15 389.50 266.25 C 382.70 265.38 375.83 265.97 369.00 265.86 C 362.50 265.94 355.97 265.41 349.50 266.24 C 349.18 289.15 349.50 312.08 349.38 335.00 C 349.25 342.02 349.80 349.07 349.08 356.08 C 343.41 356.71 337.69 356.35 332.00 356.38 C 270.00 356.38 208.00 356.38 146.00 356.38 C 140.30 356.34 134.59 356.72 128.91 356.08 C 128.28 350.41 128.65 344.69 128.62 339.00 C 128.62 279.67 128.62 220.33 128.62 161.00 C 128.82 152.64 128.15 144.25 128.92 135.92 Z" />
</g>
<g id="#a1a8b8ff">
<path fill="#a1a8b8" opacity="1.00" d=" M 129.13 390.13 C 192.75 389.76 256.38 390.08 320.00 389.97 C 329.62 390.12 339.25 389.69 348.87 390.14 C 349.24 438.08 348.91 486.04 349.02 534.00 C 348.91 559.28 349.25 584.58 348.87 609.86 C 299.59 610.24 250.29 609.91 201.00 610.02 C 177.05 609.90 153.08 610.26 129.13 609.87 C 128.76 563.25 129.09 516.62 128.98 470.00 C 129.09 443.38 128.74 416.75 129.13 390.13 Z" />
<path fill="#a1a8b8" opacity="1.00" d=" M 651.13 390.14 C 699.08 389.76 747.04 390.09 795.00 389.98 C 820.29 390.09 845.59 389.74 870.87 390.13 C 871.24 437.41 870.91 484.71 871.03 532.00 C 870.91 557.95 871.25 583.92 870.87 609.86 C 823.59 610.24 776.29 609.91 729.00 610.02 C 703.04 609.91 677.08 610.25 651.13 609.87 C 650.76 560.59 651.09 511.29 650.98 462.00 C 651.09 438.05 650.74 414.08 651.13 390.14 Z" />
<path fill="#a1a8b8" opacity="1.00" d=" M 129.14 644.13 C 178.75 643.76 228.38 644.08 278.00 643.98 C 301.62 644.10 325.25 643.74 348.87 644.14 C 349.24 694.08 348.92 744.05 349.02 794.00 C 348.90 817.29 349.26 840.59 348.87 863.87 C 299.59 864.24 250.29 863.91 201.00 864.02 C 177.05 863.90 153.08 864.26 129.14 863.87 C 128.76 815.25 129.09 766.62 128.98 718.00 C 129.10 693.38 128.74 668.75 129.14 644.13 Z" />
<path fill="#a1a8b8" opacity="1.00" d=" M 651.13 644.13 C 695.75 643.75 740.38 644.09 785.00 643.98 C 813.62 644.09 842.25 643.75 870.87 644.13 C 871.24 702.75 870.92 761.38 871.02 820.00 C 870.89 834.62 871.28 849.25 870.87 863.87 C 815.25 864.24 759.62 863.91 704.00 864.02 C 686.38 863.90 668.75 864.27 651.13 863.87 C 650.75 827.25 651.09 790.62 650.98 754.00 C 651.09 717.38 650.75 680.75 651.13 644.13 Z" />
</g>
</svg>
