<?xml version="1.0" encoding="UTF-8" ?>
<!DOCTYPE svg PUBLIC "-//W3C//DTD SVG 1.1//EN" "http://www.w3.org/Graphics/SVG/1.1/DTD/svg11.dtd">
<svg width="1000pt" height="1000pt" viewBox="0 0 1000 1000" version="1.1" xmlns="http://www.w3.org/2000/svg">
<g id="#3189c6ff">
<path fill="#3189c6" opacity="1.00" d=" M 16.08 25.09 C 112.00 25.17 207.92 25.15 303.85 25.09 C 303.72 64.48 303.86 103.88 303.78 143.27 C 321.26 143.24 338.74 143.24 356.22 143.27 C 356.14 103.88 356.27 64.48 356.15 25.09 C 452.05 25.16 547.95 25.16 643.85 25.09 C 643.73 64.48 643.86 103.88 643.78 143.27 C 661.26 143.24 678.74 143.24 696.22 143.27 C 696.15 103.88 696.28 64.48 696.16 25.09 C 792.08 25.16 888.00 25.16 983.92 25.09 C 983.84 121.02 983.86 216.96 983.91 312.90 C 888.00 312.84 792.08 312.85 696.17 312.90 C 696.27 273.64 696.15 234.39 696.23 195.13 C 678.75 195.09 661.26 195.01 643.78 195.14 C 643.85 234.39 643.74 273.65 643.84 312.90 C 604.50 312.82 565.16 312.90 525.82 312.86 C 525.83 327.31 525.84 341.76 525.81 356.21 C 565.16 356.16 604.50 356.25 643.84 356.16 C 643.78 452.06 643.79 547.95 643.83 643.84 C 604.49 643.75 565.15 643.84 525.81 643.79 C 525.80 658.15 525.89 672.51 525.77 686.87 C 540.50 687.47 555.27 686.96 570.02 687.13 C 594.62 687.11 619.23 687.17 643.84 687.10 C 643.79 783.04 643.77 878.97 643.85 974.91 C 547.95 974.84 452.05 974.84 356.16 974.91 C 356.23 878.97 356.21 783.04 356.16 687.10 C 395.51 687.19 434.85 687.08 474.20 687.16 C 474.15 672.70 474.17 658.25 474.19 643.79 C 434.84 643.84 395.50 643.75 356.16 643.84 C 356.22 547.95 356.22 452.05 356.16 356.16 C 395.50 356.25 434.85 356.16 474.19 356.21 C 474.06 341.75 474.37 327.28 474.03 312.82 C 434.74 312.95 395.45 312.80 356.16 312.90 C 356.25 273.64 356.15 234.38 356.21 195.13 C 338.73 195.03 321.26 195.19 303.79 194.87 C 303.83 234.21 303.75 273.56 303.83 312.90 C 207.92 312.85 112.00 312.85 16.09 312.90 C 16.14 216.96 16.16 121.03 16.08 25.09 Z" />
</g>
<g id="#78c5fbff">
<path fill="#78c5fb" opacity="1.00" d=" M 16.57 356.59 C 112.17 356.62 207.77 356.62 303.36 356.59 C 303.31 452.18 303.32 547.77 303.36 643.36 C 207.76 643.33 112.17 643.32 16.58 643.36 C 16.62 547.77 16.63 452.18 16.57 356.59 Z" />
<path fill="#78c5fb" opacity="1.00" d=" M 696.64 356.59 C 792.23 356.62 887.83 356.62 983.43 356.59 C 983.37 452.18 983.38 547.77 983.42 643.36 C 887.83 643.32 792.24 643.33 696.64 643.36 C 696.68 547.77 696.69 452.18 696.64 356.59 Z" />
<path fill="#78c5fb" opacity="1.00" d=" M 16.58 687.53 C 112.17 687.55 207.76 687.55 303.36 687.53 C 303.31 783.13 303.31 878.73 303.36 974.33 C 207.76 974.30 112.17 974.29 16.58 974.34 C 16.62 878.74 16.62 783.13 16.58 687.53 Z" />
<path fill="#78c5fb" opacity="1.00" d=" M 696.64 687.53 C 792.23 687.55 887.83 687.55 983.42 687.53 C 983.38 783.13 983.38 878.74 983.42 974.34 C 887.83 974.29 792.23 974.30 696.64 974.33 C 696.69 878.73 696.69 783.13 696.64 687.53 Z" />
</g>
</svg>
