<?xml version="1.0" encoding="UTF-8" ?>
<!DOCTYPE svg PUBLIC "-//W3C//DTD SVG 1.1//EN" "http://www.w3.org/Graphics/SVG/1.1/DTD/svg11.dtd">
<svg width="1000pt" height="1000pt" viewBox="0 0 1000 1000" version="1.1" xmlns="http://www.w3.org/2000/svg">
<g id="#3189c6ff">
<path fill="#3189c6" opacity="1.00" d=" M 33.19 42.30 C 43.83 31.50 58.80 25.09 73.98 25.04 C 131.65 25.04 189.31 25.04 246.98 25.04 C 261.86 25.18 276.55 31.39 287.07 41.91 C 296.29 50.95 302.43 63.14 303.96 75.97 C 304.08 94.33 303.97 112.69 304.01 131.05 C 321.40 131.05 338.80 131.06 356.19 131.05 C 356.17 95.73 356.26 60.41 356.15 25.09 C 452.05 25.16 547.95 25.16 643.85 25.09 C 643.74 60.41 643.83 95.73 643.81 131.05 C 661.28 131.05 678.75 131.05 696.22 131.05 C 696.24 114.36 696.20 97.67 696.23 80.98 C 696.91 58.66 711.77 37.68 732.46 29.39 C 739.26 26.59 746.60 25.09 753.95 25.04 C 811.64 25.04 869.32 25.04 927.01 25.04 C 941.41 25.19 955.63 31.00 966.06 40.93 C 976.00 50.28 982.76 63.23 984.00 76.88 C 984.00 136.26 984.00 195.64 984.00 255.02 C 984.78 267.44 980.03 279.72 972.70 289.58 C 962.09 303.78 944.78 312.70 927.03 312.87 C 869.33 312.89 811.63 312.87 753.94 312.87 C 740.25 312.74 726.69 307.60 716.40 298.58 C 704.38 288.26 696.86 272.87 696.24 257.04 C 696.20 240.34 696.24 223.65 696.22 206.95 C 678.75 206.94 661.28 206.94 643.81 206.95 C 643.82 242.27 643.76 277.58 643.84 312.90 C 608.58 312.82 573.33 312.92 538.08 312.85 C 537.78 327.29 538.02 341.75 537.95 356.19 C 573.25 356.18 608.54 356.24 643.84 356.16 C 643.78 452.05 643.78 547.95 643.84 643.84 C 608.54 643.76 573.25 643.82 537.95 643.81 C 538.02 658.25 537.78 672.70 538.07 687.15 C 573.33 687.09 608.58 687.18 643.84 687.10 C 643.79 783.04 643.76 878.97 643.85 974.91 C 547.95 974.84 452.05 974.84 356.15 974.91 C 356.24 878.97 356.21 783.04 356.16 687.10 C 391.42 687.18 426.67 687.09 461.92 687.15 C 462.21 672.70 461.98 658.25 462.05 643.81 C 426.75 643.82 391.46 643.76 356.16 643.84 C 356.22 547.94 356.22 452.05 356.16 356.16 C 391.46 356.24 426.75 356.18 462.05 356.19 C 461.98 341.75 462.22 327.29 461.92 312.85 C 426.67 312.91 391.41 312.82 356.16 312.90 C 356.24 277.58 356.18 242.27 356.19 206.95 C 338.80 206.94 321.40 206.95 304.01 206.95 C 303.96 225.32 304.09 243.69 303.95 262.05 C 302.13 276.99 294.05 290.97 282.25 300.26 C 272.07 308.41 259.07 312.90 246.04 312.88 C 188.68 312.87 131.32 312.88 73.97 312.87 C 57.88 312.77 42.05 305.59 31.32 293.61 C 22.25 283.67 16.79 270.49 16.24 257.04 C 16.20 199.69 16.24 142.33 16.22 84.97 C 15.67 69.22 22.05 53.43 33.19 42.30 Z" />
</g>
<g id="#78c5fbff">
<path fill="#78c5fb" opacity="1.00" d=" M 16.57 356.59 C 112.17 356.63 207.77 356.62 303.36 356.59 C 303.31 452.18 303.32 547.77 303.36 643.36 C 207.76 643.33 112.17 643.32 16.57 643.36 C 16.62 547.77 16.63 452.18 16.57 356.59 Z" />
<path fill="#78c5fb" opacity="1.00" d=" M 696.64 356.59 C 792.23 356.62 887.83 356.63 983.43 356.59 C 983.37 452.18 983.38 547.77 983.43 643.36 C 887.83 643.32 792.24 643.33 696.64 643.36 C 696.68 547.77 696.69 452.18 696.64 356.59 Z" />
<path fill="#78c5fb" opacity="1.00" d=" M 70.09 687.19 C 124.74 686.84 179.40 687.14 234.06 687.04 C 242.08 687.17 250.22 686.47 258.12 688.28 C 276.14 691.95 291.90 704.78 299.37 721.55 C 302.28 728.30 304.45 735.59 304.01 743.02 C 303.98 803.03 304.01 863.04 304.00 923.05 C 302.02 944.55 286.54 963.89 266.33 971.23 C 259.83 973.65 252.89 974.88 245.96 974.88 C 188.64 974.87 131.32 974.88 74.01 974.88 C 59.10 974.77 44.37 968.64 33.77 958.16 C 23.27 947.95 16.83 933.67 16.24 919.04 C 16.20 861.68 16.24 804.33 16.22 746.97 C 15.69 731.65 21.70 716.28 32.30 705.23 C 42.10 694.83 55.82 688.24 70.09 687.19 Z" />
<path fill="#78c5fb" opacity="1.00" d=" M 750.11 687.19 C 808.39 686.83 866.67 687.15 924.95 687.03 C 938.11 686.75 951.32 691.09 961.70 699.20 C 975.83 710.14 985.24 727.91 984.00 745.99 C 984.00 805.02 984.00 864.04 984.00 923.07 C 982.56 938.38 974.26 952.77 962.24 962.27 C 952.05 970.42 939.03 974.91 925.98 974.88 C 868.65 974.87 811.31 974.88 753.97 974.87 C 739.82 974.76 725.80 969.25 715.38 959.67 C 702.95 948.50 695.66 931.77 696.22 915.04 C 696.24 857.67 696.20 800.30 696.23 742.93 C 696.78 728.98 702.63 715.32 712.29 705.24 C 722.10 694.83 735.84 688.23 750.11 687.19 Z" />
</g>
</svg>
