<?xml version="1.0" encoding="UTF-8" ?>
<!DOCTYPE svg PUBLIC "-//W3C//DTD SVG 1.1//EN" "http://www.w3.org/Graphics/SVG/1.1/DTD/svg11.dtd">
<svg width="1286pt" height="408pt" viewBox="0 0 1286 408" version="1.1" xmlns="http://www.w3.org/2000/svg">
<g id="#ffffffff">
</g>
<g id="#3189c6ff">
<path fill="#3189c6" opacity="1.00" d=" M 54.08 52.06 C 84.33 52.08 114.58 52.06 144.84 52.08 C 144.83 64.46 144.82 76.85 144.84 89.23 C 150.35 89.25 155.86 89.24 161.38 89.23 C 161.38 76.85 161.40 64.46 161.36 52.08 C 191.62 52.06 221.87 52.07 252.12 52.07 C 252.13 64.46 252.11 76.85 252.12 89.23 C 257.61 89.25 263.09 89.22 268.58 89.26 C 268.68 76.86 268.59 64.46 268.63 52.07 C 298.75 52.07 328.87 52.07 358.99 52.07 C 359.00 82.30 359.01 112.53 358.99 142.76 C 328.85 142.70 298.71 142.84 268.58 142.69 C 268.67 130.31 268.61 117.93 268.61 105.55 C 263.12 105.58 257.62 105.55 252.12 105.57 C 252.11 117.96 252.13 130.36 252.12 142.75 C 239.73 142.76 227.34 142.74 214.96 142.76 C 214.95 147.30 214.95 151.84 214.95 156.38 C 227.32 156.38 239.69 156.42 252.05 156.36 C 252.21 186.61 252.08 216.86 252.12 247.11 C 239.73 247.13 227.34 247.10 214.95 247.12 C 214.95 251.66 214.95 256.20 214.95 260.74 C 227.34 260.76 239.73 260.74 252.12 260.75 C 252.12 290.98 252.12 321.20 252.12 351.42 C 221.88 351.44 191.63 351.41 161.39 351.44 C 161.39 321.20 161.35 290.97 161.41 260.73 C 173.82 260.77 186.22 260.74 198.63 260.74 C 198.62 256.20 198.61 251.66 198.64 247.12 C 186.22 247.09 173.80 247.15 161.38 247.09 C 161.39 216.86 161.38 186.62 161.38 156.39 C 173.79 156.39 186.21 156.37 198.62 156.40 C 198.62 151.84 198.64 147.29 198.60 142.74 C 186.19 142.77 173.78 142.75 161.37 142.75 C 161.40 130.35 161.38 117.96 161.38 105.57 C 155.86 105.56 150.35 105.56 144.83 105.57 C 144.82 117.97 144.84 130.36 144.83 142.76 C 114.58 142.76 84.33 142.73 54.08 142.77 C 54.08 112.54 54.09 82.30 54.08 52.06 Z" />
<path fill="#3189c6" opacity="1.00" d=" M 866.37 52.42 C 881.69 52.42 897.01 52.41 912.33 52.43 C 912.33 67.88 912.32 83.34 912.34 98.79 C 897.01 98.77 881.68 98.80 866.36 98.77 C 866.38 83.32 866.36 67.87 866.37 52.42 Z" />
<path fill="#3189c6" opacity="1.00" d=" M 471.26 55.93 C 486.56 55.92 501.86 55.92 517.16 55.93 C 517.17 79.37 517.15 102.81 517.17 126.25 C 547.24 126.28 577.32 126.24 607.40 126.27 C 607.35 141.58 607.39 156.89 607.37 172.21 C 577.30 172.20 547.24 172.20 517.17 172.21 C 517.18 214.12 517.12 256.04 517.20 297.95 C 517.00 302.12 520.88 305.73 525.01 305.41 C 552.47 305.45 579.93 305.40 607.38 305.43 C 607.37 320.75 607.37 336.07 607.39 351.39 C 578.92 351.35 550.46 351.42 521.99 351.35 C 498.25 351.19 476.30 332.38 472.10 309.09 C 470.99 303.46 471.29 297.71 471.26 292.01 C 471.26 252.27 471.27 212.53 471.26 172.79 C 456.46 172.77 441.66 172.79 426.87 172.78 C 426.83 157.35 426.92 141.93 426.82 126.50 C 441.63 126.31 456.44 126.49 471.25 126.41 C 471.28 102.92 471.25 79.42 471.26 55.93 Z" />
<path fill="#3189c6" opacity="1.00" d=" M 650.39 176.96 C 650.47 150.00 675.19 126.05 702.04 126.27 C 743.90 126.25 785.77 126.26 827.63 126.26 C 827.56 141.60 827.77 156.94 827.53 172.28 C 786.34 172.12 745.14 172.22 703.95 172.23 C 699.80 171.91 695.99 175.75 696.34 179.90 C 696.32 237.06 696.33 294.22 696.34 351.38 C 681.02 351.38 665.69 351.37 650.37 351.38 C 650.38 293.24 650.34 235.10 650.39 176.96 Z" />
<path fill="#3189c6" opacity="1.00" d=" M 866.36 126.27 C 881.68 126.24 897.00 126.28 912.32 126.25 C 912.35 201.29 912.31 276.34 912.34 351.38 C 897.02 351.38 881.69 351.37 866.37 351.39 C 866.36 276.35 866.38 201.31 866.36 126.27 Z" />
<path fill="#3189c6" opacity="1.00" d=" M 950.47 126.22 C 968.21 126.32 985.94 126.21 1003.68 126.28 C 1034.52 182.96 1065.44 239.61 1096.22 296.32 C 1097.12 295.90 1097.78 295.24 1098.21 294.32 C 1128.58 238.27 1159.20 182.37 1189.58 126.32 C 1207.35 126.19 1225.12 126.29 1242.89 126.27 C 1201.34 201.30 1159.83 276.35 1118.30 351.38 C 1103.60 351.37 1088.90 351.38 1074.21 351.38 C 1033.05 276.28 991.63 201.32 950.47 126.22 Z" />
</g>
<g id="#78c5fbff">
<path fill="#78c5fb" opacity="1.00" d=" M 54.39 246.92 C 54.46 216.79 54.35 186.66 54.44 156.52 C 84.48 156.51 114.52 156.64 144.55 156.45 C 144.92 186.60 144.60 216.76 144.71 246.92 C 114.61 246.96 84.50 246.95 54.39 246.92 Z" />
<path fill="#78c5fb" opacity="1.00" d=" M 268.80 156.56 C 298.86 156.53 328.93 156.53 359.00 156.56 C 359.00 186.68 359.01 216.81 358.99 246.93 C 328.93 246.94 298.86 246.95 268.80 246.93 C 268.76 216.81 268.76 186.68 268.80 156.56 Z" />
<path fill="#78c5fb" opacity="1.00" d=" M 54.41 260.93 C 84.50 260.82 114.60 260.89 144.70 260.90 C 144.77 290.98 144.60 321.06 144.79 351.13 C 114.74 351.63 84.66 351.06 54.60 351.42 C 54.15 321.27 54.54 291.09 54.41 260.93 Z" />
<path fill="#78c5fb" opacity="1.00" d=" M 268.80 260.90 C 298.86 260.87 328.92 260.88 358.99 260.89 C 359.01 291.03 359.01 321.17 358.99 351.30 C 328.92 351.33 298.86 351.33 268.80 351.30 C 268.76 321.17 268.76 291.03 268.80 260.90 Z" />
</g>
</svg>
