<?xml version="1.0" encoding="UTF-8" ?>
<!DOCTYPE svg PUBLIC "-//W3C//DTD SVG 1.1//EN" "http://www.w3.org/Graphics/SVG/1.1/DTD/svg11.dtd">
<svg width="1286pt" height="408pt" viewBox="0 0 1286 408" version="1.1" xmlns="http://www.w3.org/2000/svg">
<g id="#ffffffff">
</g>
<g id="#3189c6ff">
<path fill="#3189c6" opacity="1.00" d=" M 54.52 70.02 C 54.36 60.68 62.59 52.19 71.92 52.07 C 90.30 52.00 108.68 52.04 127.06 52.05 C 135.85 51.92 144.03 59.23 144.86 67.98 C 145.02 73.75 144.85 79.53 144.92 85.31 C 150.39 85.33 155.86 85.33 161.33 85.31 C 161.32 74.23 161.34 63.15 161.31 52.06 C 191.46 52.05 221.61 52.05 251.76 52.06 C 251.73 63.15 251.74 74.23 251.75 85.31 C 257.23 85.33 262.72 85.33 268.21 85.31 C 268.28 79.89 268.12 74.46 268.27 69.04 C 268.70 59.96 276.87 52.02 286.00 52.05 C 303.00 51.99 320.00 52.07 337.00 52.02 C 340.29 52.03 343.72 51.85 346.83 53.13 C 353.33 55.52 358.62 61.95 358.52 69.04 C 358.49 87.70 358.48 106.36 358.52 125.02 C 358.85 134.37 350.08 142.45 340.92 142.44 C 322.64 142.49 304.36 142.49 286.07 142.44 C 277.10 142.43 269.00 134.86 268.31 125.93 C 268.07 120.35 268.30 114.76 268.22 109.18 C 262.72 109.18 257.23 109.18 251.74 109.18 C 251.75 120.28 251.73 131.39 251.75 142.49 C 240.66 142.51 229.56 142.48 218.46 142.50 C 218.49 147.05 218.36 151.60 218.55 156.14 C 229.62 156.06 240.69 156.13 251.75 156.10 C 251.72 186.24 251.77 216.38 251.73 246.52 C 240.64 246.48 229.55 246.50 218.46 246.50 C 218.50 251.05 218.34 255.60 218.57 260.15 C 229.63 260.06 240.69 260.13 251.75 260.11 C 251.74 290.24 251.73 320.36 251.76 350.48 C 221.62 350.51 191.48 350.46 161.35 350.51 C 161.29 320.38 161.36 290.25 161.31 260.12 C 172.42 260.04 183.54 260.25 194.65 260.01 C 194.59 255.50 194.63 251.00 194.60 246.49 C 183.51 246.51 172.42 246.49 161.33 246.50 C 161.31 216.37 161.34 186.24 161.31 156.11 C 172.41 156.07 183.52 156.15 194.62 156.07 C 194.61 151.55 194.62 147.02 194.61 142.49 C 183.52 142.51 172.44 142.47 161.35 142.52 C 161.29 131.40 161.35 120.29 161.32 109.18 C 155.85 109.18 150.39 109.17 144.92 109.18 C 144.86 114.81 145.00 120.44 144.88 126.07 C 144.30 135.03 135.94 142.53 127.01 142.45 C 108.69 142.47 90.37 142.51 72.05 142.43 C 62.88 142.29 54.66 134.19 54.54 125.00 C 54.50 106.67 54.54 88.35 54.52 70.02 Z" />
<path fill="#3189c6" opacity="1.00" d=" M 866.48 52.51 C 881.73 52.53 896.98 52.42 912.23 52.56 C 912.20 67.91 912.20 83.26 912.23 98.61 C 896.98 98.67 881.73 98.63 866.48 98.63 C 866.48 83.26 866.47 67.88 866.48 52.51 Z" />
<path fill="#3189c6" opacity="1.00" d=" M 471.40 56.02 C 486.61 55.98 501.82 56.00 517.03 56.01 C 517.05 79.46 517.02 102.91 517.04 126.37 C 547.13 126.47 577.21 126.35 607.30 126.42 C 607.25 141.63 607.30 156.85 607.27 172.06 C 577.20 172.08 547.13 172.03 517.06 172.08 C 517.00 213.74 517.04 255.40 517.04 297.06 C 516.48 301.55 520.40 305.88 524.97 305.50 C 552.41 305.52 579.84 305.48 607.28 305.52 C 607.29 320.77 607.27 336.03 607.29 351.29 C 578.86 351.24 550.44 351.34 522.01 351.24 C 495.92 351.11 472.10 328.20 471.44 302.03 C 471.35 258.91 471.44 215.78 471.39 172.65 C 456.59 172.62 441.80 172.65 427.00 172.64 C 426.96 157.26 426.98 141.89 426.99 126.51 C 441.79 126.47 456.59 126.55 471.39 126.47 C 471.41 102.98 471.40 79.50 471.40 56.02 Z" />
<path fill="#3189c6" opacity="1.00" d=" M 650.48 176.96 C 650.62 149.75 675.89 125.58 703.03 126.40 C 744.53 126.42 786.02 126.39 827.51 126.41 C 827.53 141.61 827.50 156.80 827.53 172.00 C 786.33 172.17 745.12 171.98 703.91 172.09 C 699.65 171.82 695.85 175.72 696.23 179.98 C 696.20 237.08 696.22 294.18 696.22 351.28 C 680.98 351.28 665.74 351.28 650.50 351.28 C 650.46 293.18 650.49 235.07 650.48 176.96 Z" />
<path fill="#3189c6" opacity="1.00" d=" M 866.48 126.41 C 881.73 126.43 896.99 126.34 912.24 126.45 C 912.18 201.40 912.22 276.34 912.22 351.28 C 896.98 351.28 881.74 351.28 866.50 351.28 C 866.46 276.33 866.49 201.37 866.48 126.41 Z" />
<path fill="#3189c6" opacity="1.00" d=" M 950.63 126.39 C 968.29 126.43 985.94 126.38 1003.60 126.41 C 1028.51 172.16 1053.43 217.90 1078.31 263.66 C 1084.57 274.71 1090.13 286.18 1096.81 296.97 C 1127.84 240.17 1158.74 183.30 1189.68 126.45 C 1207.32 126.35 1224.97 126.41 1242.61 126.43 C 1201.20 201.41 1159.63 276.30 1118.24 351.28 C 1103.57 351.25 1088.91 351.33 1074.26 351.25 C 1033.16 276.23 991.87 201.33 950.63 126.39 Z" />
</g>
<g id="#78c5fbff">
<path fill="#78c5fb" opacity="1.00" d=" M 54.63 156.22 C 84.66 156.24 114.69 156.21 144.72 156.23 C 144.73 186.26 144.70 216.28 144.73 246.31 C 114.69 246.38 84.66 246.33 54.62 246.33 C 54.61 216.29 54.59 186.25 54.63 156.22 Z" />
<path fill="#78c5fb" opacity="1.00" d=" M 268.35 156.23 C 298.37 156.20 328.40 156.24 358.42 156.21 C 358.47 186.25 358.45 216.29 358.43 246.33 C 328.45 246.39 298.46 246.27 268.47 246.39 C 268.18 216.34 268.43 186.28 268.35 156.23 Z" />
<path fill="#78c5fb" opacity="1.00" d=" M 69.34 260.41 C 71.88 259.99 74.47 260.09 77.04 260.08 C 93.72 260.13 110.41 260.06 127.09 260.12 C 134.49 260.09 141.46 265.18 143.95 272.10 C 145.24 275.25 144.89 278.71 144.93 282.03 C 144.91 297.33 144.92 312.63 144.93 327.94 C 144.88 331.60 145.32 335.45 143.81 338.91 C 141.21 345.67 134.29 350.61 126.99 350.49 C 108.66 350.47 90.32 350.52 71.98 350.47 C 62.79 350.41 54.60 342.17 54.54 332.98 C 54.50 314.65 54.53 296.32 54.53 277.99 C 54.45 269.58 61.13 261.88 69.34 260.41 Z" />
<path fill="#78c5fb" opacity="1.00" d=" M 282.39 260.56 C 284.54 260.08 286.76 260.08 288.96 260.07 C 306.33 260.15 323.69 260.04 341.06 260.13 C 348.19 260.19 354.87 264.98 357.50 271.56 C 358.94 274.83 358.44 278.48 358.51 281.95 C 358.51 298.96 358.48 315.98 358.53 332.99 C 358.90 342.32 350.21 350.54 341.03 350.48 C 323.71 350.52 306.39 350.45 289.06 350.51 C 278.38 352.03 267.79 342.91 268.22 332.04 C 268.23 314.02 268.19 296.00 268.24 277.99 C 268.25 269.83 274.46 262.31 282.39 260.56 Z" />
</g>
</svg>
